<svg width="50" height="49" viewBox="0 0 50 49" fill="none" xmlns="http://www.w3.org/2000/svg">
<g id="mdi:rotate-3d">
<path id="Vector" d="M15.7512 43.8958C9.075 40.7108 4.2975 34.2183 3.5625 26.5417H0.5C1.52083 39.1183 12.0558 49 24.8979 49L26.2454 48.9388L18.4667 41.16L15.7512 43.8958ZM17.5683 30.5433C17.1804 30.5433 16.8333 30.4821 16.5067 30.38C16.2017 30.2787 15.9229 30.1114 15.69 29.89C15.4654 29.6858 15.2817 29.4408 15.1592 29.1346C15.0367 28.8488 14.9754 28.5221 14.9754 28.175H12.3212C12.3212 28.91 12.4642 29.6042 12.75 30.1146C13.0358 30.625 13.4237 31.1354 13.8933 31.5233C14.3833 31.8908 14.9346 32.1767 15.5675 32.3604C16.18 32.5646 16.8333 32.6667 17.5275 32.6667C18.2829 32.6667 18.9975 32.5646 19.6304 32.3604C20.2837 32.1563 20.8554 31.85 21.325 31.4621C21.7946 31.0742 22.1825 30.625 22.4479 29.9921C22.7133 29.4 22.8562 28.7467 22.8562 28.0117C22.8562 27.6238 22.8154 27.2358 22.7133 26.8683C22.6112 26.5417 22.4683 26.1537 22.2437 25.8271C22.0396 25.5208 21.7537 25.2146 21.4271 24.9492C21.08 24.6838 20.6717 24.5 20.1817 24.3162C20.9215 23.9904 21.5522 23.4589 21.9987 22.785C22.2029 22.4583 22.3458 22.1725 22.4479 21.8458C22.55 21.5192 22.5908 21.1925 22.5908 20.8658C22.5908 20.1308 22.4683 19.4775 22.2233 18.9058C21.9375 18.375 21.6312 17.8646 21.1821 17.4971C20.7737 17.1092 20.2225 16.8233 19.61 16.6192C18.9771 16.4354 18.2829 16.3333 17.5275 16.3333C16.8333 16.3333 16.1187 16.4354 15.4858 16.66C14.8733 16.8846 14.3221 17.1908 13.8729 17.5788C13.4442 17.9667 13.0971 18.375 12.8317 18.9467C12.5867 19.4775 12.4642 20.0492 12.4642 20.6821H15.1183C15.1183 20.335 15.1796 20.0288 15.3021 19.7633C15.4174 19.4963 15.5919 19.2589 15.8125 19.0692C16.0371 18.8854 16.2821 18.7221 16.5883 18.62C16.8946 18.5179 17.2008 18.4567 17.5683 18.4567C18.385 18.4567 18.9975 18.6608 19.3854 19.0896C19.7733 19.4979 19.9775 20.09 19.9775 20.8454C19.9775 21.2129 19.8958 21.5396 19.8142 21.8458C19.7126 22.1378 19.5367 22.3981 19.3037 22.6012C19.0792 22.8054 18.7933 22.9688 18.4667 23.0913C18.14 23.2138 17.7317 23.275 17.2825 23.275H15.7104V25.3779H17.2825C17.7317 25.3779 18.14 25.4188 18.5075 25.5208C18.875 25.6229 19.1812 25.7862 19.4262 25.9904C19.6712 26.215 19.8958 26.4804 20.0183 26.8071C20.1612 27.1338 20.2225 27.5625 20.2225 27.9708C20.2225 28.8079 19.9775 29.4408 19.5079 29.8696C19.0383 30.3392 18.385 30.5433 17.5683 30.5433ZM35.0246 18.4567C34.3712 17.7829 33.5954 17.2521 32.6971 16.8846C31.8192 16.5171 30.8187 16.3333 29.7162 16.3333H24.8979V32.6667H29.5937C30.7167 32.6667 31.7579 32.4829 32.6767 32.1154C33.5954 31.7479 34.3917 31.2375 35.045 30.5638C35.6983 29.89 36.2292 29.0733 36.5558 28.1342C36.9029 27.1746 37.0867 26.1129 37.0867 24.9288V24.1121C37.0867 22.9279 36.9029 21.8663 36.5558 20.9067C36.2292 19.9471 35.6779 19.1304 35.0246 18.4567ZM34.1875 24.9083C34.1875 25.7658 34.1262 26.5417 33.9425 27.2154C33.7383 27.8892 33.4525 28.4813 33.0646 28.9508C32.6767 29.4204 32.1458 29.7879 31.615 30.0329C31.0229 30.2779 30.3492 30.4004 29.5937 30.4004H27.7358V18.62H29.7162C31.1862 18.62 32.3092 19.0896 33.0646 20.0288C33.8404 20.9679 34.1875 22.3154 34.1875 24.0917M24.8979 0L23.5504 0.06125L31.3292 7.84L34.0446 5.10417C40.7208 8.28917 45.4983 14.7613 46.2129 22.4583H49.2754C48.2546 9.88167 37.74 0 24.8979 0Z" fill="#222222"/>
</g>
</svg>
