<svg width="50" height="49" viewBox="0 0 50 49" fill="none" xmlns="http://www.w3.org/2000/svg">
<g id="mi:location">
<path id="Vector" d="M25.0001 4.27783C16.0167 4.27783 8.66675 11.4334 8.66675 20.4167C8.66675 31.4417 22.9584 43.8959 23.5709 44.5084C23.9792 44.7126 24.5917 44.9167 25.0001 44.9167C25.4084 44.9167 26.0209 44.7126 26.4292 44.5084C27.0417 43.8959 41.3334 31.4417 41.3334 20.4167C41.3334 11.4334 33.9834 4.27783 25.0001 4.27783ZM25.0001 40.8334C20.7126 36.7501 12.1667 27.3584 12.1667 20.4167C12.1667 13.6792 18.2626 7.77783 25.0001 7.77783C31.7376 7.77783 37.8334 13.6792 37.8334 20.4167C37.8334 27.1542 29.2876 36.7501 25.0001 40.8334ZM25.0001 12.2501C20.5084 12.2501 16.8334 15.9251 16.8334 20.4167C16.8334 24.9084 20.5084 28.5834 25.0001 28.5834C29.4917 28.5834 33.1667 24.9084 33.1667 20.4167C33.1667 15.9251 29.4917 12.2501 25.0001 12.2501ZM25.0001 25.2778C22.7542 25.2778 20.3334 22.6626 20.3334 20.4167C20.3334 18.1709 22.7542 15.5556 25.0001 15.5556C27.2459 15.5556 29.6667 18.1709 29.6667 20.4167C29.6667 22.6626 27.2459 25.2778 25.0001 25.2778Z" fill="#222222"/>
</g>
</svg>
