<svg width="23" height="23" viewBox="0 0 23 23" fill="none" xmlns="http://www.w3.org/2000/svg">
    <g id="wpf:speaker" clip-path="url(#clip0_70_1412)">
        <path id="Vector" d="M10.6428 0.94026C10.3588 0.941144 10.0448 1.06853 9.75819 1.35426L4.69908 7.07684H0.884615C0.397192 7.07684 0 7.47403 0 7.96145V15.0384C0 15.5258 0.397192 15.923 0.884615 15.923H4.69996L9.73077 21.6181C10.6154 22.5028 11.5 22.0498 11.5 20.8441V2.01684C11.5 1.31711 11.117 0.935836 10.6428 0.93849V0.94026ZM17.0563 2.70949C16.8681 2.74231 16.6957 2.83514 16.5646 2.97409C16.4336 3.11305 16.3511 3.29068 16.3294 3.48042C16.3077 3.67017 16.348 3.86184 16.4442 4.02679C16.5405 4.19174 16.6876 4.32111 16.8634 4.39557C18.1794 5.0572 19.2852 6.07234 20.0566 7.32718C20.828 8.58202 21.2346 10.0269 21.2308 11.4999C21.2308 14.6173 19.4615 17.2941 16.8625 18.6043C16.7443 18.6454 16.6361 18.7112 16.5451 18.7973C16.4542 18.8834 16.3826 18.9878 16.335 19.1036C16.2874 19.2195 16.2649 19.3441 16.2691 19.4692C16.2733 19.5944 16.304 19.7172 16.3592 19.8296C16.4144 19.942 16.4928 20.0415 16.5893 20.1213C16.6858 20.2011 16.7981 20.2596 16.9189 20.2927C17.0396 20.3259 17.166 20.3331 17.2898 20.3138C17.4135 20.2944 17.5317 20.2491 17.6366 20.1806C20.815 18.5768 23 15.2931 23 11.4999C23 7.70668 20.8141 4.42299 17.6366 2.81918C17.4852 2.73469 17.3123 2.69655 17.1394 2.70949C17.1117 2.70819 17.084 2.70819 17.0563 2.70949ZM14.9553 6.13649C14.7648 6.15048 14.584 6.22573 14.4398 6.35101C14.2957 6.47629 14.1959 6.64486 14.1555 6.83152C14.1151 7.01818 14.1362 7.21291 14.2156 7.3866C14.295 7.56029 14.4285 7.70361 14.5962 7.79514C15.9611 8.64349 16.8077 9.98722 16.8077 11.4999C16.8077 13.0232 15.9478 14.3846 14.5687 15.2321C14.4604 15.2886 14.3649 15.367 14.2884 15.4622C14.2118 15.5575 14.1558 15.6676 14.1239 15.7855C14.092 15.9035 14.0849 16.0268 14.1031 16.1476C14.1212 16.2685 14.1642 16.3843 14.2293 16.4877C14.2944 16.5911 14.3802 16.6799 14.4813 16.7485C14.5824 16.8171 14.6967 16.864 14.8169 16.8862C14.937 16.9085 15.0605 16.9056 15.1795 16.8778C15.2985 16.8499 15.4104 16.7977 15.5082 16.7245C17.3393 15.601 18.5769 13.6902 18.5769 11.4999C18.5769 9.32287 17.35 7.40149 15.5356 6.27537C15.3874 6.18068 15.2143 6.13233 15.0385 6.13649C15.0108 6.13519 14.983 6.13519 14.9553 6.13649Z" fill="#222222"/>
    </g>
    <defs>
        <clipPath id="clip0_70_1412">
            <rect width="23" height="23" fill="white"/>
        </clipPath>
    </defs>
</svg>
