<svg width="47" height="45" viewBox="0 0 47 45" fill="none" xmlns="http://www.w3.org/2000/svg">
    <g id="fluent-mdl2:website" clip-path="url(#clip0_70_1434)">
        <path id="Vector" d="M23.5 0C25.6113 0 27.6478 0.263672 29.6094 0.791016C31.571 1.31836 33.4053 2.07275 35.1123 3.0542C36.8193 4.03564 38.3691 5.20752 39.7617 6.56982C41.1543 7.93213 42.3522 9.45557 43.3555 11.1401C44.3587 12.8247 45.1299 14.6191 45.6689 16.5234C46.208 18.4277 46.485 20.4199 46.5 22.5C46.5 24.5654 46.2305 26.5576 45.6914 28.4766C45.1523 30.3955 44.3812 32.1899 43.3779 33.8599C42.3747 35.5298 41.1768 37.0459 39.7842 38.4082C38.3916 39.7705 36.8343 40.9424 35.1123 41.9238C33.3903 42.9053 31.556 43.6597 29.6094 44.187C27.6628 44.7144 25.6263 44.9854 23.5 45C21.3887 45 19.3522 44.7363 17.3906 44.209C15.429 43.6816 13.5947 42.9272 11.8877 41.9458C10.1807 40.9644 8.63086 39.7925 7.23828 38.4302C5.8457 37.0679 4.64779 35.5444 3.64453 33.8599C2.64128 32.1753 1.87012 30.3882 1.33105 28.4985C0.791992 26.6089 0.514974 24.6094 0.5 22.5C0.5 20.4346 0.769531 18.4424 1.30859 16.5234C1.84766 14.6045 2.61882 12.8101 3.62207 11.1401C4.62533 9.47021 5.82324 7.9541 7.21582 6.5918C8.6084 5.22949 10.1657 4.05762 11.8877 3.07617C13.6097 2.09473 15.4365 1.34033 17.3682 0.812988C19.2998 0.285645 21.3438 0.0146484 23.5 0ZM23.5 42.1875C25.3418 42.1875 27.1162 41.9531 28.8232 41.4844C30.5303 41.0156 32.1325 40.3564 33.6299 39.5068C35.1273 38.6572 36.4899 37.6245 37.7178 36.4087C38.9456 35.1929 39.9938 33.8672 40.8623 32.4316C41.7308 30.9961 42.4121 29.4287 42.9062 27.7295C43.4004 26.0303 43.64 24.2871 43.625 22.5C43.625 20.6982 43.3854 18.9624 42.9062 17.2925C42.4271 15.6226 41.7533 14.0552 40.8848 12.5903C40.0163 11.1255 38.9606 9.79248 37.7178 8.59131C36.4749 7.39014 35.1198 6.36475 33.6523 5.51514C32.1849 4.66553 30.5827 3.99902 28.8457 3.51562C27.1087 3.03223 25.3268 2.79785 23.5 2.8125C21.6582 2.8125 19.8838 3.04688 18.1768 3.51562C16.4697 3.98438 14.8675 4.64355 13.3701 5.49316C11.8727 6.34277 10.5101 7.37549 9.28223 8.59131C8.05436 9.80713 7.00619 11.1328 6.1377 12.5684C5.26921 14.0039 4.58789 15.5713 4.09375 17.2705C3.59961 18.9697 3.36003 20.7129 3.375 22.5C3.375 24.3018 3.61458 26.0376 4.09375 27.7075C4.57292 29.3774 5.24674 30.9448 6.11523 32.4097C6.98372 33.8745 8.03939 35.2075 9.28223 36.4087C10.5251 37.6099 11.8802 38.6353 13.3477 39.4849C14.8151 40.3345 16.4173 41.001 18.1543 41.4844C19.8913 41.9678 21.6732 42.2021 23.5 42.1875ZM36.9092 22.8516L37.9873 19.6875H39.6719L37.7627 25.3125H36.0781L35 22.1484L33.9219 25.3125H32.2373L30.3281 19.6875H32.0127L33.0908 22.8516L34.1689 19.6875H35.8311L36.9092 22.8516ZM26.4873 19.6875H28.1719L26.2627 25.3125H24.5781L23.5 22.1484L22.4219 25.3125H20.7373L18.8281 19.6875H20.5127L21.5908 22.8516L22.6689 19.6875H24.3311L25.4092 22.8516L26.4873 19.6875ZM14.9873 19.6875H16.6719L14.7627 25.3125H13.0781L12 22.1484L10.9219 25.3125H9.2373L7.32812 19.6875H9.0127L10.0908 22.8516L11.1689 19.6875H12.8311L13.9092 22.8516L14.9873 19.6875Z" fill="black"/>
    </g>
    <defs>
        <clipPath id="clip0_70_1434">
            <rect width="46" height="45" fill="white" transform="translate(0.5)"/>
        </clipPath>
    </defs>
</svg>
